KRS.PY-Light Wide.ufo
<glyph name="zero" format="1">
  <advance width="1026"/>
  <unicode hex="0030"/>
  <outline>
    <contour>
      <point x="46" y="0" type="line"/>
      <point x="980" y="0" type="line"/>
      <point x="980" y="750" type="line"/>
      <point x="46" y="750" type="line"/>
    </contour>
    <contour>
      <point x="87" y="32" type="line"/>
      <point x="87" y="718" type="line"/>
      <point x="939" y="718" type="line"/>
      <point x="939" y="32" type="line"/>
    </contour>
  </outline>
</glyph>
<glyph name="one" format="1">
  <advance width="976"/>
  <unicode hex="0031"/>
  <outline>
    <contour>
      <point x="6" y="0" type="line"/>
      <point x="972" y="0" type="line"/>
      <point x="972" y="35" type="line"/>
      <point x="510" y="35" type="line"/>
      <point x="510" y="750" type="line"/>
      <point x="2" y="750" type="line"/>
      <point x="2" y="715" type="line"/>
      <point x="468" y="715" type="line"/>
      <point x="468" y="35" type="line"/>
      <point x="6" y="35" type="line"/>
    </contour>
  </outline>
</glyph>
<glyph name="two" format="1">
  <advance width="902"/>
  <unicode hex="0032"/>
  <outline>
    <contour>
      <point x="22" y="0" type="line"/>
      <point x="880" y="0" type="line"/>
      <point x="880" y="153" type="line"/>
      <point x="839" y="153" type="line"/>
      <point x="839" y="31" type="line"/>
      <point x="63" y="31" type="line"/>
      <point x="63" y="357" type="line"/>
      <point x="869" y="357" type="line"/>
      <point x="869" y="750" type="line"/>
      <point x="45" y="750" type="line"/>
      <point x="45" y="718" type="line"/>
      <point x="828" y="718" type="line"/>
      <point x="828" y="390" type="line"/>
      <point x="22" y="390" type="line"/>
    </contour>
  </outline>
</glyph>
<glyph name="four" format="1">
  <advance width="1030"/>
  <unicode hex="0034"/>
  <outline>
    <contour>
      <point x="806" y="0" type="line"/>
      <point x="847" y="0" type="line"/>
      <point x="847" y="337" type="line"/>
      <point x="1025" y="337" type="line"/>
      <point x="1025" y="370" type="line"/>
      <point x="847" y="370" type="line"/>
      <point x="847" y="650" type="line"/>
      <point x="806" y="650" type="line"/>
      <point x="806" y="370" type="line"/>
      <point x="48" y="370" type="line"/>
      <point x="48" y="465" type="line"/>
      <point x="186" y="750" type="line"/>
      <point x="143" y="750" type="line"/>
      <point x="7" y="466" type="line"/>
      <point x="7" y="337" type="line"/>
      <point x="806" y="337" type="line"/>
    </contour>
  </outline>
</glyph>
<glyph name="five" format="1">
  <advance width="1045"/>
  <unicode hex="0035"/>
  <outline>
    <contour>
      <point x="24" y="0" type="line"/>
      <point x="994" y="0" type="line"/>
      <point x="1029" y="110" type="line"/>
      <point x="1029" y="386" type="line"/>
      <point x="65" y="386" type="line"/>
      <point x="65" y="715" type="line"/>
      <point x="1024" y="715" type="line"/>
      <point x="1024" y="750" type="line"/>
      <point x="24" y="750" type="line"/>
      <point x="24" y="353" type="line"/>
      <point x="988" y="353" type="line"/>
      <point x="988" y="117" type="line"/>
      <point x="962" y="35" type="line"/>
      <point x="65" y="35" type="line"/>
      <point x="65" y="222" type="line"/>
      <point x="24" y="222" type="line"/>
    </contour>
  </outline>
</glyph>
<glyph name="six" format="1">
  <advance width="1067"/>
  <unicode hex="0036"/>
  <outline>
    <contour>
      <point x="42" y="0" type="line"/>
      <point x="1041" y="0" type="line"/>
      <point x="1041" y="367" type="line"/>
      <point x="83" y="367" type="line"/>
      <point x="83" y="558" type="line"/>
      <point x="195" y="718" type="line"/>
      <point x="995" y="718" type="line"/>
      <point x="995" y="540" type="line"/>
      <point x="1037" y="540" type="line"/>
      <point x="1037" y="750" type="line"/>
      <point x="174" y="750" type="line"/>
      <point x="42" y="562" type="line"/>
    </contour>
    <contour>
      <point x="83" y="32" type="line"/>
      <point x="83" y="339" type="line"/>
      <point x="1000" y="339" type="line"/>
      <point x="1000" y="32" type="line"/>
    </contour>
  </outline>
</glyph>
<glyph name="seven" format="1">
  <advance width="1011"/>
  <unicode hex="0037"/>
  <outline>
    <contour>
      <point x="270" y="0" type="line"/>
      <point x="325" y="0" type="line"/>
      <point x="998" y="599" type="line"/>
      <point x="998" y="750" type="line"/>
      <point x="7" y="750" type="line"/>
      <point x="7" y="484" type="line"/>
      <point x="45" y="484" type="line"/>
      <point x="45" y="715" type="line"/>
      <point x="957" y="715" type="line"/>
      <point x="957" y="608" type="line"/>
    </contour>
  </outline>
</glyph>
<glyph name="B" format="1">
  <advance width="1210"/>
  <unicode hex="0042"/>
  <outline>
    <contour>
      <point x="46" y="0" type="line"/>
      <point x="1184" y="0" type="line"/>
      <point x="1184" y="305" type="line"/>
      <point x="982" y="371" type="line"/>
      <point x="982" y="373" type="line"/>
      <point x="1148" y="440" type="line"/>
      <point x="1148" y="750" type="line"/>
      <point x="46" y="750" type="line"/>
    </contour>
    <contour>
      <point x="87" y="32" type="line"/>
      <point x="87" y="356" type="line"/>
      <point x="943" y="356" type="line"/>
      <point x="1143" y="287" type="line"/>
      <point x="1143" y="32" type="line"/>
    </contour>
    <contour>
      <point x="87" y="387" type="line"/>
      <point x="87" y="718" type="line"/>
      <point x="1107" y="718" type="line"/>
      <point x="1107" y="455" type="line"/>
      <point x="945" y="387" type="line"/>
    </contour>
  </outline>
</glyph>
<glyph name="C" format="1">
  <advance width="1221"/>
  <unicode hex="0043"/>
  <outline>
    <contour>
      <point x="46" y="0" type="line"/>
      <point x="1184" y="0" type="line"/>
      <point x="1184" y="167" type="line"/>
      <point x="1143" y="167" type="line"/>
      <point x="1143" y="29" type="line"/>
      <point x="87" y="29" type="line"/>
      <point x="87" y="548" type="line"/>
      <point x="210" y="721" type="line"/>
      <point x="1142" y="721" type="line"/>
      <point x="1142" y="488" type="line"/>
      <point x="1183" y="488" type="line"/>
      <point x="1183" y="751" type="line"/>
      <point x="187" y="751" type="line"/>
      <point x="46" y="553" type="line"/>
    </contour>
  </outline>
</glyph>
<glyph name="D" format="1">
  <advance width="1210"/>
  <unicode hex="0044"/>
  <outline>
    <contour>
      <point x="46" y="0" type="line"/>
      <point x="1171" y="0" type="line"/>
      <point x="1171" y="570" type="line"/>
      <point x="1018" y="750" type="line"/>
      <point x="46" y="750" type="line"/>
    </contour>
    <contour>
      <point x="87" y="32" type="line"/>
      <point x="87" y="718" type="line"/>
      <point x="994" y="718" type="line"/>
      <point x="1130" y="558" type="line"/>
      <point x="1130" y="31" type="line"/>
    </contour>
  </outline>
</glyph>
<glyph name="E" format="1">
  <advance width="1111"/>
  <unicode hex="0045"/>
  <outline>
    <contour>
      <point x="46" y="0" type="line"/>
      <point x="1078" y="0" type="line"/>
      <point x="1078" y="233" type="line"/>
      <point x="1037" y="233" type="line"/>
      <point x="1037" y="32" type="line"/>
      <point x="87" y="32" type="line"/>
      <point x="87" y="364" type="line"/>
      <point x="905" y="364" type="line"/>
      <point x="905" y="395" type="line"/>
      <point x="87" y="395" type="line"/>
      <point x="87" y="718" type="line"/>
      <point x="1036" y="718" type="line"/>
      <point x="1036" y="538" type="line"/>
      <point x="1077" y="538" type="line"/>
      <point x="1077" y="750" type="line"/>
      <point x="46" y="750" type="line"/>
    </contour>
  </outline>
</glyph>
<glyph name="F" format="1">
  <advance width="1097"/>
  <unicode hex="0046"/>
  <outline>
    <contour>
      <point x="46" y="0" type="line"/>
      <point x="87" y="0" type="line"/>
      <point x="87" y="355" type="line"/>
      <point x="988" y="355" type="line"/>
      <point x="988" y="386" type="line"/>
      <point x="87" y="386" type="line"/>
      <point x="87" y="718" type="line"/>
      <point x="1034" y="718" type="line"/>
      <point x="1034" y="517" type="line"/>
      <point x="1075" y="517" type="line"/>
      <point x="1075" y="750" type="line"/>
      <point x="46" y="750" type="line"/>
    </contour>
  </outline>
</glyph>
<glyph name="G" format="1">
  <advance width="1224"/>
  <unicode hex="0047"/>
  <outline>
    <contour>
      <point x="46" y="0" type="line"/>
      <point x="1181" y="0" type="line"/>
      <point x="1181" y="374" type="line"/>
      <point x="607" y="374" type="line"/>
      <point x="607" y="341" type="line"/>
      <point x="1140" y="341" type="line"/>
      <point x="1140" y="32" type="line"/>
      <point x="87" y="32" type="line"/>
      <point x="87" y="547" type="line"/>
      <point x="206" y="718" type="line"/>
      <point x="1142" y="718" type="line"/>
      <point x="1142" y="561" type="line"/>
      <point x="1183" y="561" type="line"/>
      <point x="1183" y="750" type="line"/>
      <point x="177" y="750" type="line"/>
      <point x="46" y="559" type="line"/>
    </contour>
  </outline>
</glyph>
<glyph name="H" format="1">
  <advance width="1230"/>
  <unicode hex="0048"/>
  <outline>
    <contour>
      <point x="46" y="0" type="line"/>
      <point x="87" y="0" type="line"/>
      <point x="87" y="369" type="line"/>
      <point x="1143" y="369" type="line"/>
      <point x="1143" y="0" type="line"/>
      <point x="1184" y="0" type="line"/>
      <point x="1184" y="750" type="line"/>
      <point x="1143" y="750" type="line"/>
      <point x="1143" y="404" type="line"/>
      <point x="87" y="404" type="line"/>
      <point x="87" y="750" type="line"/>
      <point x="46" y="750" type="line"/>
    </contour>
  </outline>
</glyph>
<glyph name="K" format="1">
  <advance width="1220"/>
  <unicode hex="004B"/>
  <outline>
    <contour>
      <point x="46" y="0" type="line"/>
      <point x="88" y="0" type="line"/>
      <point x="88" y="363" type="line"/>
      <point x="760" y="365" type="line"/>
      <point x="1145" y="293" type="line"/>
      <point x="1145" y="0" type="line"/>
      <point x="1187" y="0" type="line"/>
      <point x="1187" y="314" type="line"/>
      <point x="811" y="382" type="line"/>
      <point x="811" y="383" type="line"/>
      <point x="1171" y="460" type="line"/>
      <point x="1171" y="750" type="line"/>
      <point x="1130" y="750" type="line"/>
      <point x="1130" y="478" type="line"/>
      <point x="760" y="395" type="line"/>
      <point x="88" y="395" type="line"/>
      <point x="88" y="750" type="line"/>
      <point x="46" y="750" type="line"/>
    </contour>
  </outline>
</glyph>
<glyph name="L" format="1">
  <advance width="1172"/>
  <unicode hex="004C"/>
  <outline>
    <contour>
      <point x="46" y="0" type="line"/>
      <point x="1142" y="0" type="line"/>
      <point x="1142" y="267" type="line"/>
      <point x="1101" y="267" type="line"/>
      <point x="1101" y="32" type="line"/>
      <point x="88" y="32" type="line"/>
      <point x="88" y="750" type="line"/>
      <point x="46" y="750" type="line"/>
    </contour>
  </outline>
</glyph>
<glyph name="M" format="1">
  <advance width="1321"/>
  <unicode hex="004D"/>
  <outline>
    <contour>
      <point x="46" y="0" type="line"/>
      <point x="87" y="0" type="line"/>
      <point x="87" y="718" type="line"/>
      <point x="101" y="718" type="line"/>
      <point x="638" y="103" type="line"/>
      <point x="683" y="103" type="line"/>
      <point x="1217" y="719" type="line"/>
      <point x="1234" y="719" type="line"/>
      <point x="1234" y="0" type="line"/>
      <point x="1275" y="0" type="line"/>
      <point x="1275" y="750" type="line"/>
      <point x="1185" y="750" type="line"/>
      <point x="663" y="142" type="line"/>
      <point x="657" y="142" type="line"/>
      <point x="135" y="750" type="line"/>
      <point x="46" y="750" type="line"/>
    </contour>
  </outline>
</glyph>
<glyph name="P" format="1">
  <advance width="1170"/>
  <unicode hex="0050"/>
  <outline>
    <contour>
      <point x="46" y="0" type="line"/>
      <point x="88" y="0" type="line"/>
      <point x="88" y="325" type="line"/>
      <point x="1150" y="420" type="line"/>
      <point x="1150" y="750" type="line"/>
      <point x="46" y="750" type="line"/>
    </contour>
    <contour>
      <point x="88" y="359" type="line"/>
      <point x="88" y="718" type="line"/>
      <point x="1108" y="718" type="line"/>
      <point x="1108" y="447" type="line"/>
    </contour>
  </outline>
</glyph>
<glyph name="Q" format="1">
  <advance width="1233"/>
  <unicode hex="0051"/>
  <outline>
    <contour>
      <point x="46" y="0" type="line"/>
      <point x="1187" y="0" type="line"/>
      <point x="1187" y="750" type="line"/>
      <point x="169" y="750" type="line"/>
      <point x="46" y="591" type="line"/>
    </contour>
    <contour>
      <point x="690" y="-180" type="line"/>
      <point x="730" y="-180" type="line"/>
      <point x="636" y="10" type="line"/>
      <point x="599" y="10" type="line"/>
    </contour>
    <contour>
      <point x="88" y="32" type="line"/>
      <point x="88" y="582" type="line"/>
      <point x="196" y="718" type="line"/>
      <point x="1146" y="718" type="line"/>
      <point x="1146" y="32" type="line"/>
    </contour>
  </outline>
</glyph>
<glyph name="W" format="1">
  <advance width="1348"/>
  <unicode hex="0057"/>
  <outline>
    <contour>
      <point x="166" y="0" type="line"/>
      <point x="568" y="0" type="line"/>
      <point x="676" y="123" type="line"/>
      <point x="671" y="123" type="line"/>
      <point x="784" y="0" type="line"/>
      <point x="1186" y="0" type="line"/>
      <point x="1302" y="167" type="line"/>
      <point x="1302" y="750" type="line"/>
      <point x="1261" y="750" type="line"/>
      <point x="1261" y="175" type="line"/>
      <point x="1159" y="32" type="line"/>
      <point x="804" y="32" type="line"/>
      <point x="693" y="153" type="line"/>
      <point x="693" y="750" type="line"/>
      <point x="652" y="750" type="line"/>
      <point x="652" y="153" type="line"/>
      <point x="547" y="32" type="line"/>
      <point x="192" y="32" type="line"/>
      <point x="87" y="175" type="line"/>
      <point x="87" y="750" type="line"/>
      <point x="46" y="750" type="line"/>
      <point x="46" y="167" type="line"/>
    </contour>
  </outline>
</glyph>
<glyph name="X" format="1">
  <advance width="1224"/>
  <unicode hex="0058"/>
  <outline>
    <contour>
      <point x="42" y="0" type="line"/>
      <point x="84" y="0" type="line"/>
      <point x="84" y="268" type="line"/>
      <point x="348" y="355" type="line"/>
      <point x="895" y="355" type="line"/>
      <point x="1140" y="266" type="line"/>
      <point x="1140" y="0" type="line"/>
      <point x="1182" y="0" type="line"/>
      <point x="1182" y="283" type="line"/>
      <point x="934" y="368" type="line"/>
      <point x="934" y="371" type="line"/>
      <point x="1164" y="463" type="line"/>
      <point x="1164" y="750" type="line"/>
      <point x="1123" y="750" type="line"/>
      <point x="1123" y="477" type="line"/>
      <point x="895" y="385" type="line"/>
      <point x="348" y="385" type="line"/>
      <point x="101" y="477" type="line"/>
      <point x="101" y="750" type="line"/>
      <point x="60" y="750" type="line"/>
      <point x="60" y="464" type="line"/>
      <point x="309" y="371" type="line"/>
      <point x="309" y="368" type="line"/>
      <point x="42" y="281" type="line"/>
    </contour>
  </outline>
</glyph>
<glyph name="Y" format="1">
  <advance width="1190"/>
  <unicode hex="0059"/>
  <outline>
    <contour>
      <point x="575" y="0" type="line"/>
      <point x="616" y="0" type="line"/>
      <point x="616" y="333" type="line"/>
      <point x="1164" y="422" type="line"/>
      <point x="1164" y="750" type="line"/>
      <point x="1122" y="750" type="line"/>
      <point x="1122" y="448" type="line"/>
      <point x="599" y="363" type="line"/>
      <point x="592" y="363" type="line"/>
      <point x="67" y="447" type="line"/>
      <point x="67" y="750" type="line"/>
      <point x="26" y="750" type="line"/>
      <point x="26" y="422" type="line"/>
      <point x="575" y="333" type="line"/>
    </contour>
  </outline>
</glyph>
<glyph name="Z" format="1">
  <advance width="1188"/>
  <unicode hex="005A"/>
  <outline>
    <contour>
      <point x="43" y="0" type="line"/>
      <point x="1146" y="0" type="line"/>
      <point x="1146" y="278" type="line"/>
      <point x="1105" y="278" type="line"/>
      <point x="1105" y="33" type="line"/>
      <point x="88" y="33" type="line"/>
      <point x="88" y="177" type="line"/>
      <point x="1141" y="702" type="line"/>
      <point x="1141" y="750" type="line"/>
      <point x="47" y="750" type="line"/>
      <point x="47" y="515" type="line"/>
      <point x="88" y="515" type="line"/>
      <point x="88" y="717" type="line"/>
      <point x="1095" y="717" type="line"/>
      <point x="1095" y="713" type="line"/>
      <point x="43" y="192" type="line"/>
    </contour>
  </outline>
</glyph>
<glyph name="I.alt1" format="1">
  <advance width="1064"/>
  <outline>
    <contour>
      <point x="26" y="0" type="line"/>
      <point x="1038" y="0" type="line"/>
      <point x="1038" y="32" type="line"/>
      <point x="553" y="32" type="line"/>
      <point x="553" y="717" type="line"/>
      <point x="1038" y="717" type="line"/>
      <point x="1038" y="750" type="line"/>
      <point x="26" y="750" type="line"/>
      <point x="26" y="717" type="line"/>
      <point x="512" y="717" type="line"/>
      <point x="512" y="32" type="line"/>
      <point x="26" y="32" type="line"/>
    </contour>
  </outline>
</glyph>
